PathFileType	4	(X/Y/Z)	C:/Users/beibeiliu/ov580/test_trc/User3\out2_training_dense_left.trc
DataRate	CameraRate	NumFrames	NumMarkers	Units	OrigDataRate	OrigDataStartFrame	OrigNumFrames
120	120	10	19	mm	120	1	500
Frame#	Time	ThumbCMC			ThumbMCP			ThumbIP			ThumbTip			IndexMCP			IndexPIP			IndexTip			MiddleMCP			MiddlePIP			MiddleTip			RingMCP			RingPIP			RingTip			PinkyMCP			PinkyPIP			PinkyTip			BackHand1			BackHand2			BackHand3	
		X0	Y0	Z0	X1	Y1	Z1	X2	Y2	Z2	X3	Y3	Z3	X4	Y4	Z4	X5	Y5	Z5	X6	Y6	Z6	X7	Y7	Z7	X8	Y8	Z8	X9	Y9	Z9	X10	Y10	Z10	X11	Y11	Z11	X12	Y12	Z12	X13	Y13	Z13	X14	Y14	Z14	X15	Y15	Z15	X16	Y16	Z16	X17	Y17	Z17	X18	Y18	Z18	
0	0	-121.74	11.7847	35.9835	-103.404	5.30326	14.2831	-84.0336	0.959934	-9.37843	-74.3576	-5.26826	-33.0056	-141.011	38.4909	-37.2714	-133.304	41.2993	-63.7268	-129.199	39.4738	-95.0891	-163.106	42.0724	-43.9473	-163.158	43.6382	-73.5129	-164.276	35.7012	-105.669	-183.073	36.3744	-38.5401	-187.213	38.2062	-60.9545	-192.493	32.1366	-88.3259	-206.257	26.5787	-22.2585	-211.882	26.9623	-41.4223	-214.499	24.0892	-67.1855	-182.017	39.4306	13.0928	-182.667	35.2568	47.6664	-150.117	37.5772	27.3236	
1	0.00833333	-123.591	11.6588	33.0418	-102.661	6.3073	12.8378	-89.1242	0.956798	-10.7109	-74.9829	-5.91375	-32.6596	-141.591	39.3114	-39.2774	-134.882	42.6685	-68.4936	-131.358	39.1603	-96.5409	-162.641	42.9368	-47.024	-162.355	44.0401	-71.7387	-164.736	35.617	-106.376	-187.827	36.7586	-36.9999	-186.789	37.6493	-62.18	-192.806	31.2977	-94.0526	-203.894	25.1825	-19.4802	-213.404	27.2841	-47.2102	-218.271	24.7126	-66.8881	-184.486	37.7861	15.9952	-182.16	36.8344	44.3851	-149.74	37.0519	24.8071	
2	0.0166667	-123.765	11.0006	34.5878	-104.571	5.80915	15.031	-84.8724	0.837327	-13.2633	-77.0911	-5.90263	-28.8693	-135.996	39.5046	-43.0193	-134.812	41.8492	-66.6752	-127.143	39.5397	-92.5384	-164.734	43.4114	-43.8724	-162.561	44.28	-73.2046	-161.502	36.4818	-105.132	-182.374	36.7076	-35.5734	-187.419	37.5243	-66.9227	-193.618	31.0097	-93.17	-205.185	27.3335	-20.7863	-213.338	27.3622	-45.3563	-216.39	22.7729	-67.2306	-184.78	39.1475	15.2596	-181.357	35.6958	43.4846	-150.926	36.6615	27.3436	
3	0.025	-120.011	11.765	30.0975	-104.39	5.66888	11.7144	-86.6164	0.122705	-11.9021	-75.9344	-6.91977	-27.6735	-138.517	38.7854	-42.9083	-130.178	41.6144	-70.0479	-132.401	39.4295	-91.9228	-162.142	42.1908	-43.0066	-162.801	43.6625	-75.5689	-164.236	36.0916	-105.972	-181.717	37.1445	-38.4607	-187.683	37.6155	-65.8222	-190.467	32.4253	-88.996	-200.36	25.672	-20.4236	-208.651	28.8173	-45.5061	-216.722	25.1189	-67.7979	-182.778	38.1927	11.8108	-184.82	35.9885	42.3518	-149.144	37.0334	24.1064	
4	0.0333333	-124.501	10.6279	33.2699	-102.657	5.86825	10.0981	-83.9454	-0.377694	-10.2936	-73.0995	-7.13179	-29.3899	-135.737	38.4497	-39.453	-131.803	41.9057	-65.1583	-127.448	40.2095	-91.5636	-159.764	44.2637	-48.4533	-160.085	42.677	-77.9494	-161.459	36.85	-104.776	-186.2	36.1508	-37.7243	-186.149	37.9061	-67.5037	-192.276	30.3499	-93.2626	-205.85	26.4232	-22.5603	-207.278	28.0423	-44.3734	-216.66	24.7855	-68.2359	-183.319	39.6955	12.6556	-179.065	36.7192	40.6517	-149.85	36.1318	23.8328	
5	0.0416667	-123.71	11.849	29.1628	-103.9	6.52252	10.6959	-86.0664	1.2261	-14.3053	-72.7411	-6.46598	-30.731	-135.3	38.0772	-38.4497	-134.809	41.9433	-69.5235	-128.453	39.7947	-91.8327	-164.206	43.2536	-47.629	-160.996	43.7622	-75.2337	-164.896	36.1426	-105.748	-186.92	36.335	-37.7425	-189.432	37.6636	-66.9551	-193.721	31.4154	-90.3147	-203.629	26.9851	-22.096	-207.85	27.922	-42.5123	-216.949	22.4638	-67.1679	-180.102	38.5167	15.7338	-181.654	35.5014	42.5584	-146.768	35.9751	24.9098	
6	0.05	-121.273	12.4515	29.8593	-101.269	6.61618	10.3406	-87.7953	-0.682816	-10.2189	-75.6955	-6.12741	-29.8953	-139.121	39.7018	-43.4948	-131.412	41.1256	-65.4597	-130.735	39.6834	-92.2475	-165.103	43.572	-48.0994	-160.734	43.9332	-72.9947	-162.877	36.701	-107.896	-182.095	35.9557	-35.8404	-187.987	37.8465	-64.1714	-190.284	31.7363	-94.5241	-206.017	26.5615	-22.3489	-210.958	27.3345	-47.9519	-216.926	22.8343	-68.9966	-179.195	36.4218	15.5116	-183.146	35.4666	44.2125	-149.994	37.6549	26.6102	
7	0.0583333	-121.704	12.1305	34.7204	-102.219	5.86063	13.4584	-83.2765	1.16387	-12.9184	-72.0221	-6.18422	-29.0078	-137.803	40.0969	-41.9294	-130.563	41.4431	-70.1501	-131.502	40.4169	-92.439	-163.093	43.4224	-47.8465	-161.799	43.6147	-73.8471	-159.758	34.9295	-110.362	-181.821	36.8236	-37.0369	-190.353	37.7154	-64.4116	-192.704	31.7405	-90.5356	-205.667	28.5045	-24.3591	-209.574	27.9014	-44.3322	-216.303	22.1414	-71.5523	-184.366	37.3702	15.9065	-182.921	36.0322	42.3184	-146.832	38.7349	25.6863	
8	0.0666667	-121.716	11.4138	31.6834	-102.676	5.76593	10.5064	-87.5644	0.273418	-11.8905	-73.9801	-5.90381	-33.2089	-137.558	39.1356	-39.7015	-131.725	42.0199	-70.8223	-126.334	38.6558	-96.8183	-162.088	43.0424	-44.3831	-164.225	43.6613	-77.273	-161.964	35.4083	-107.598	-183.724	37.3309	-38.4914	-189.501	37.9471	-63.9891	-189.52	30.9616	-93.2619	-205.262	26.6413	-19.9591	-209.339	28.2217	-43.0093	-217.239	23.4676	-69.1713	-181.437	37.0325	13.9836	-183.049	34.7308	45.1814	-148.447	36.0341	26.3341	
9	0.075	-124.394	11.268	33.203	-99.3526	5.58301	12.0242	-83.1171	0.318351	-8.79707	-76.7381	-7.31248	-29.5371	-136.702	38.8095	-41.0829	-134.515	41.8856	-66.038	-130.187	40.5427	-93.8469	-160.866	43.7579	-46.6353	-159.971	44.3049	-75.1369	-161.082	35.9573	-106.079	-180.692	38.09	-39.578	-190.251	38.9394	-62.3315	-191.045	31.2147	-91.3289	-200.881	26.2132	-19.8548	-210.855	28.1963	-45.6385	-215.243	23.5853	-68.3118	-184.509	37.6933	14.8873	-183.264	36.3945	41.2952	-147.81	36.4175	27.1172	
